<svg width="1602" height="388" viewBox="0 0 1602 388" fill="none" xmlns="http://www.w3.org/2000/svg">
<path d="M85.8201 0.718895C93.3015 -0.491061 108.257 0.191115 116.32 0.195939L171.648 0.256715L238.987 0.203654C253.616 0.163129 274.1 -0.58272 287.939 1.94237C302.595 4.63148 316.414 10.7237 328.283 19.7309C348.3 35.1226 361.331 57.8802 364.476 82.9342C366.009 94.835 365.576 108.997 365.553 121.157L365.508 174.222L365.596 239.536C365.611 254.298 366.313 274.04 363.659 288.125C360.846 302.93 354.57 316.86 345.344 328.776C328.814 350.163 306.528 361.384 280.065 364.825C271.072 365.704 254.366 365.277 244.891 365.273L180.849 365.223L122.528 365.286C108.77 365.317 90.8103 365.975 77.6026 363.554C63.0315 360.873 49.2902 354.82 37.4766 345.88C17.4696 330.529 4.4211 307.823 1.23036 282.808C-0.330759 270.928 0.114996 256.793 0.136223 244.647L0.183496 191.566L0.0976207 126.701C0.0821832 111.835 -0.62794 91.8507 2.02345 77.6824C4.81378 62.6245 11.1856 48.4591 20.6015 36.3818C37.1428 15.1216 59.4345 4.01395 85.8201 0.718895Z" fill="#044F4D"/>
<path d="M234.353 94.4935C247.084 93.7862 256.768 93.6878 269.091 97.3997C294.823 105.15 307.154 126.48 298.604 152.449L256.269 152.433C257.576 141.909 257.168 131.744 243.731 130.025C239.274 129.422 234.761 130.628 231.198 133.375C212.764 147.627 236.231 158.788 248.094 162.999C272.11 171.524 299.054 187.431 295.721 216.963C289.497 272.114 243.195 271.684 200.911 271.632L156.33 271.532C78.5065 272.24 87.9234 282.08 78.7178 206.503L65.155 94.3294C83.4195 94.5871 102.259 94.3439 120.571 94.341C120.669 104.923 127.639 230.553 127.406 230.244C129.601 230.534 132.314 231.249 133.057 228.693C146.169 183.559 161.933 139.029 176.625 94.3449C195.868 94.2262 215.111 94.2754 234.353 94.4935Z" fill="#3B6D11"/>
<path d="M234.353 94.4935C247.084 93.7862 256.768 93.6878 269.091 97.3997C294.823 105.15 307.154 126.48 298.604 152.449L256.269 152.433C257.576 141.909 257.168 131.744 243.731 130.025C239.274 129.422 234.761 130.628 231.198 133.375C212.764 147.627 236.232 158.788 248.094 162.999C272.11 171.524 299.054 187.431 295.721 216.963C289.497 272.114 243.195 271.684 200.911 271.632L156.33 271.532C158.495 270.177 163.463 267.037 164.834 265.061C174.809 250.679 179.196 230.063 187.097 213.989L187.433 213.313C188.138 209.36 196.686 189.188 198.634 184.442C200.199 181.138 201.878 176.689 203.178 173.223C213.008 146.993 225.095 120.873 234.353 94.4935Z" fill="#044F4D"/>
<path d="M198.633 184.442C209.208 191.742 218.314 195.981 230.368 200.863C237.149 203.609 250.42 209.363 251.854 217.559C253.306 232.528 229.628 240.787 219.134 232.156C212.441 226.653 213.866 220.702 214.878 213.312L187.433 213.313C188.138 209.36 196.686 189.188 198.633 184.442Z" fill="#044F4D"/>
<path d="M1160.67 94.0071C1187.12 94.1895 1263.24 89.4578 1282.15 102.9C1288.44 107.369 1292.01 113.809 1293.17 121.367C1295.09 133.956 1291.8 153.994 1284.1 164.327C1276.5 174.517 1264.64 176.18 1252.92 177.763C1259.11 178.529 1265.1 179.159 1270.84 181.759C1296.73 193.489 1291.8 227.148 1282.16 248.155C1266.94 272.208 1225.1 268.163 1200.02 268.167C1178.76 268.222 1157.51 268.152 1136.25 267.958C1138.37 247.682 1142.15 224.769 1145.02 204.342L1160.67 94.0071ZM1226.83 228.998C1231.54 222.977 1238.82 202.606 1231.19 197.142C1224.47 192.327 1209.09 194.936 1200.46 194.485C1198.75 206.263 1196.31 220.383 1195.1 232.04C1205.55 232.177 1217.44 233.335 1226.83 228.998ZM1204.58 161.297C1214.25 161.441 1224.92 162.439 1233.82 159.127C1238.18 153.633 1244.19 136.98 1236.98 131.864C1231.34 127.864 1216.98 130.246 1209.68 130.15C1207.84 139.913 1206.74 152.168 1204.58 161.297Z" fill="#044F4D"/>
<path d="M911.811 94.2088C991.073 93.3858 978.935 84.8138 990.041 163.498L1004.85 268.127C986.461 267.878 968.062 267.873 949.672 268.114C949.363 257.015 947.858 242.446 946.989 231.149L923.872 231.175L899.268 231.186C896.316 241.398 889.774 257.558 885.925 267.975L828.912 267.847L874.752 158.063C882.181 140.275 889.803 120.919 898.033 103.501C900.687 97.9072 906.042 95.7131 911.811 94.2088ZM926.766 191.432L943.844 191.427C942.291 172.626 941.664 153.138 940.168 135.122C937.331 134.212 936.521 134.322 933.607 134.4C929.371 156.224 920.861 171.5 914.532 191.435L926.766 191.432Z" fill="#3B6D11"/>
<path d="M712.73 94.0352L767.914 94.0583C768.059 135.976 773.559 183.722 774.273 227.298L776.174 228.792L778.238 228.337C781.036 225.474 786.893 203.362 788.813 197.674L823.866 94.0062C842.671 94.3951 862.836 94.0641 881.737 94.0689L869.754 123.609L834.875 209.902C828.111 226.665 821.434 246.459 811.902 261.667C805.871 271.283 779.647 267.494 769.207 267.798C753.114 268.267 734.947 271.916 732.328 250.745C725.894 198.72 718.058 146.199 712.73 94.0352Z" fill="#3B6D11"/>
<path d="M583.803 94.0226C602.766 94.314 622.592 94.0583 641.613 94.0592L631.173 120.268C618.088 151.37 603.867 187.296 591.372 218.574C569.79 272.601 577.215 268.56 518.361 268.235C503.576 268.153 494.789 267.249 492.252 250.04C487.052 214.777 483.37 179.206 478.759 143.851C476.782 127.836 473.98 110.122 473.348 94.0766L527.86 94.0477C527.985 103.434 535.265 228.742 534.602 227.961L538.475 228.055C539.002 227.76 539.63 227.411 540.359 227.006C541.825 220.284 544.444 211.075 546.481 204.862L583.803 94.0226Z" fill="#3B6D11"/>
<path d="M1347.59 94.2638C1357.01 93.6676 1370.98 94.0622 1380.68 94.0525L1442.9 93.9859C1440.56 107.337 1438.72 121.744 1436.62 135.274C1424.58 135.199 1374.6 133.307 1366.7 137.632C1362.34 142.534 1361.83 153.818 1360.97 160.696L1423.88 160.712C1422.23 172.91 1420.79 185.133 1419.52 197.377C1398.49 197.091 1377.06 197.325 1356 197.35C1354.67 205.125 1350.79 218.7 1354.96 224.821C1357.68 227.01 1358.69 226.882 1362.15 227.164L1423.16 227.076L1419.4 268.351C1396.19 267.599 1330.78 272.518 1313.52 262.065C1305.71 257.324 1299.99 249.118 1297.98 240.214C1294.8 226.061 1306.64 145.614 1310.55 128.363C1311.74 123.133 1313.37 117.049 1316.34 112.57C1324 101.019 1334.55 96.7571 1347.59 94.2638Z" fill="#044F4D"/>
<path d="M1450.45 93.9927L1601.93 93.9888C1599.7 102.954 1597.5 124.409 1595.71 135.182C1579.69 135.023 1563.65 135.056 1547.61 135.278C1542.6 164.892 1538.68 198.799 1534.55 228.797C1533.01 234.786 1530.03 260.024 1528.78 268.223L1473.65 268.117C1480.19 227.321 1487.29 176.146 1492.16 135.2C1477.22 134.644 1459.56 135.104 1444.41 135.114C1446.27 121.383 1448.27 107.675 1450.45 93.9927Z" fill="#044F4D"/>
<path d="M1000.19 93.9946C1049.53 94.9759 1101.97 94.0699 1151.56 94.0583L1145.8 135.044L1097.41 134.904C1094.4 163.851 1088.37 199.94 1084.23 229.142C1082.9 241.522 1080.55 255.555 1078.77 268.004C1060.44 267.826 1042.1 267.87 1023.77 268.133C1030.58 224.45 1036.33 178.836 1042.47 134.923L994.276 135.022C996.718 122.05 998.493 107.102 1000.19 93.9946Z" fill="#3B6D11"/>
<path d="M649.735 94.0091C667.55 94.4298 686.781 94.067 704.708 94.0699C701.67 108.427 698.702 135.392 696.537 150.783L679.91 267.999L625.148 267.886C628.348 252.245 631.281 225.487 633.608 208.958L649.735 94.0091Z" fill="#3B6D11"/>
<path d="M1357.46 289.905C1401.1 286.768 1396.88 326.885 1388.74 356.8C1384.84 371.141 1375.61 381.355 1361.69 386.473C1334.62 391.803 1321.01 373.547 1323.6 348.021C1326.08 323.633 1330.63 297.963 1357.46 289.905ZM1356.88 371.476C1363.64 368.149 1367.97 363.337 1369.91 355.562C1373.14 342.624 1377.87 323.921 1372.8 311.171C1370.7 305.881 1365.85 305.616 1361.03 305.551C1355.51 307.381 1352.7 309.468 1350.03 314.986C1346.78 321.716 1345.18 328.534 1344.15 336.165C1342.8 346.234 1338.47 363.961 1349.2 370.562C1349.99 371.05 1355.64 371.401 1356.88 371.476Z" fill="#044F4D"/>
<path d="M1417.37 290.554C1440.67 290.123 1478.55 284.92 1471.49 323.276C1469.38 334.714 1463.07 340.925 1453.72 346.956L1464.08 386.547L1443.45 386.606L1440.86 374.974C1438.79 366.742 1439.06 359.452 1434.82 353.054C1431.19 350.84 1430.97 351.615 1426.02 351.583C1424.29 362.806 1422.29 375.552 1419.8 386.528L1400.71 386.566C1402.9 377.353 1404.89 363.067 1406.55 353.467L1417.37 290.554ZM1428.75 335.226C1436.05 335.476 1440.68 336.359 1447.03 332.721C1451.77 327.054 1457.95 315.396 1450.08 309.455C1445.04 305.653 1440.11 306.55 1434.03 306.618C1432.33 316.165 1430.57 325.7 1428.75 335.226Z" fill="#044F4D"/>
<path d="M1259.51 290.566C1267.17 290.442 1277.94 290.792 1285.37 290.265C1316.6 288.05 1325.23 321.504 1307.04 342.485C1297.04 354.012 1282.17 352.217 1268.03 352.783C1266 364.012 1264.1 375.267 1262.37 386.547L1242.91 386.565L1259.51 290.566ZM1270.8 336.157C1277.35 336.29 1284.67 337.108 1290.48 334.187C1296.04 328.015 1302.59 315.864 1294.02 309.684C1288.35 305.584 1282.47 306.576 1275.85 306.66C1274.22 316.5 1272.54 326.332 1270.8 336.157Z" fill="#044F4D"/>
<path d="M1204.77 289.996C1212.42 289.093 1219.82 289.135 1226.52 293.456C1233.42 297.901 1243.43 310.374 1238.06 318.638C1235.21 319.987 1224.2 319.51 1220.39 319.484C1217.61 292.901 1196.06 308.818 1199.39 320.125C1202.44 330.503 1229.73 336.114 1231.15 351.201C1233.19 372.802 1223.57 383.2 1203.74 387.358C1180.59 387.317 1172.43 377.988 1170.62 355.684L1189.63 355.605C1190.04 365.076 1190.55 373.006 1203.94 371.092C1206.47 370.73 1211.21 366.056 1212.09 363.734C1216.53 352.318 1199.95 345.39 1192.7 340.001C1181.14 331.426 1176.37 319.339 1183.07 305.883C1187.73 296.519 1195.34 293.063 1204.77 289.996Z" fill="#044F4D"/>
<path d="M1549.56 290.397L1549.85 290.641C1550.6 293.281 1548.47 303.249 1547.89 306.618L1524.93 306.662C1519.74 333.013 1516.06 360.068 1510.84 386.521L1491.75 386.563L1494.9 368.995C1495.53 358.928 1503.45 318.848 1505.61 306.679L1483.06 306.789C1484.02 301.619 1484.8 295.595 1485.6 290.329C1506.54 290.701 1528.55 290.4 1549.56 290.397Z" fill="#044F4D"/>
</svg>
