<svg xmlns="http://www.w3.org/2000/svg" width="1200" height="630" viewBox="0 0 1200 630" fill="none">
  <!-- Фон: глубокий тёмно-зелёный из бренда -->
  <rect width="1200" height="630" fill="#044F4D"/>

  <!-- Тонкая lime-сетка для текстуры -->
  <g opacity="0.04" stroke="#A8CD0C" stroke-width="1">
    <line x1="0" y1="105" x2="1200" y2="105"/>
    <line x1="0" y1="210" x2="1200" y2="210"/>
    <line x1="0" y1="315" x2="1200" y2="315"/>
    <line x1="0" y1="420" x2="1200" y2="420"/>
    <line x1="0" y1="525" x2="1200" y2="525"/>
    <line x1="200" y1="0" x2="200" y2="630"/>
    <line x1="400" y1="0" x2="400" y2="630"/>
    <line x1="600" y1="0" x2="600" y2="630"/>
    <line x1="800" y1="0" x2="800" y2="630"/>
    <line x1="1000" y1="0" x2="1000" y2="630"/>
  </g>

  <!-- Radial highlight снизу-слева для глубины -->
  <defs>
    <radialGradient id="glow" cx="20%" cy="100%" r="60%">
      <stop offset="0%" stop-color="#A8CD0C" stop-opacity="0.18"/>
      <stop offset="100%" stop-color="#A8CD0C" stop-opacity="0"/>
    </radialGradient>
  </defs>
  <rect width="1200" height="630" fill="url(#glow)"/>

  <!-- Лого-квадрат VS -->
  <g transform="translate(80, 235) scale(0.44)">
    <path d="M85.8201 0.718895C93.3015 -0.491061 108.257 0.191115 116.32 0.195939L171.648 0.256715L238.987 0.203654C253.616 0.163129 274.1 -0.58272 287.939 1.94237C302.595 4.63148 316.414 10.7237 328.283 19.7309C348.3 35.1226 361.331 57.8802 364.476 82.9342C366.009 94.835 365.576 108.997 365.553 121.157L365.508 174.222L365.596 239.536C365.611 254.298 366.313 274.04 363.659 288.125C360.846 302.93 354.57 316.86 345.344 328.776C328.814 350.163 306.528 361.384 280.065 364.825C271.072 365.704 254.366 365.277 244.891 365.273L180.849 365.223L122.528 365.286C108.77 365.317 90.8103 365.975 77.6026 363.554C63.0315 360.873 49.2902 354.82 37.4766 345.88C17.4696 330.529 4.4211 307.823 1.23036 282.808C-0.330759 270.928 0.114996 256.793 0.136223 244.647L0.183496 191.566L0.0976207 126.701C0.0821832 111.835 -0.62794 91.8507 2.02345 77.6824C4.81378 62.6245 11.1856 48.4591 20.6015 36.3818C37.1428 15.1216 59.4345 4.01395 85.8201 0.718895Z" fill="#FFFFFF"/>
    <path d="M234.353 94.4935C247.084 93.7862 256.768 93.6878 269.091 97.3997C294.823 105.15 307.154 126.48 298.604 152.449L256.269 152.433C257.576 141.909 257.168 131.744 243.731 130.025C239.274 129.422 234.761 130.628 231.198 133.375C212.764 147.627 236.231 158.788 248.094 162.999C272.11 171.524 299.054 187.431 295.721 216.963C289.497 272.114 243.195 271.684 200.911 271.632L156.33 271.532C78.5065 272.24 87.9234 282.08 78.7178 206.503L65.155 94.3294C83.4195 94.5871 102.259 94.3439 120.571 94.341C120.669 104.923 127.639 230.553 127.406 230.244C129.601 230.534 132.314 231.249 133.057 228.693C146.169 183.559 161.933 139.029 176.625 94.3449C195.868 94.2262 215.111 94.2754 234.353 94.4935Z" fill="#A8CD0C"/>
  </g>

  <!-- Wordmark + tagline -->
  <text x="280" y="305" fill="#FFFFFF" font-family="system-ui,-apple-system,'Segoe UI',Roboto,sans-serif" font-size="84" font-weight="900" letter-spacing="-2">
    Vivat<tspan fill="#A8CD0C">Bet</tspan>
  </text>
  <text x="282" y="370" fill="#A8CD0C" font-family="system-ui,-apple-system,'Segoe UI',Roboto,sans-serif" font-size="32" font-weight="700" letter-spacing="2" text-transform="uppercase">
    LIVE SPORTS · 500+ LEAGUES
  </text>
  <text x="282" y="430" fill="#94a3b8" font-family="system-ui,-apple-system,'Segoe UI',Roboto,sans-serif" font-size="26" font-weight="500">
    Real-time scores, fixtures and results.
  </text>

  <!-- Footer-полоска -->
  <rect x="0" y="600" width="1200" height="30" fill="#033937"/>
  <text x="80" y="620" fill="#A8CD0C" font-family="system-ui,sans-serif" font-size="14" font-weight="700" letter-spacing="3">
    VIVATBETSPORT.BE
  </text>
  <text x="1120" y="620" fill="#94a3b8" font-family="system-ui,sans-serif" font-size="14" font-weight="500" text-anchor="end">
    Powered by Vivat Sport
  </text>
</svg>
